{
  "accessors": [
    {
      "bufferView": 2,
      "componentType": 5126,
      "count": 1044,
      "max": [
        1704.419677734375,
        898.8515625,
        -2615.67041015625
      ],
      "min": [
        1546.913818359375,
        701.2369384765625,
        -2775.606201171875
      ],
      "type": "VEC3"
    },
    {
      "bufferView": 2,
      "byteOffset": 12528,
      "componentType": 5126,
      "count": 1044,
      "max": [
        1.0,
        1.0,
        0.9848089814186096
      ],
      "min": [
        -1.0,
        -1.0,
        -0.9848074316978455
      ],
      "type": "VEC3"
    },
    {
      "bufferView": 1,
      "componentType": 5126,
      "count": 1044,
      "max": [
        0.8723853826522827,
        0.9791812896728516
      ],
      "min": [
        0.03656935691833496,
        0.01229621097445488
      ],
      "type": "VEC2"
    },
    {
      "bufferView": 0,
      "componentType": 5125,
      "count": 1608,
      "type": "SCALAR"
    },
    {
      "bufferView": 2,
      "byteOffset": 25056,
      "componentType": 5126,
      "count": 1114,
      "max": [
        1699.197021484375,
        1041.3438720703125,
        -2147.23193359375
      ],
      "min": [
        1552.136474609375,
        -0.5979418754577637,
        -2750.674072265625
      ],
      "type": "VEC3"
    },
    {
      "bufferView": 2,
      "byteOffset": 38424,
      "componentType": 5126,
      "count": 1114,
      "max": [
        1.0,
        1.0,
        1.0
      ],
      "min": [
        -1.0,
        -1.0,
        -1.0
      ],
      "type": "VEC3"
    },
    {
      "bufferView": 1,
      "byteOffset": 8352,
      "componentType": 5126,
      "count": 1114,
      "max": [
        0.9917854070663452,
        0.9903263449668884
      ],
      "min": [
        0.00901942327618599,
        0.009075019508600235
      ],
      "type": "VEC2"
    },
    {
      "bufferView": 0,
      "byteOffset": 6432,
      "componentType": 5125,
      "count": 1722,
      "type": "SCALAR"
    }
  ],
  "asset": {
    "extras": {
      "author": "Rollauf (https://sketchfab.com/Rolfernoid)",
      "license": "CC-BY-4.0 (http://creativecommons.org/licenses/by/4.0/)",
      "source": "https://sketchfab.com/3d-models/lantern-pole-with-a-paper-lantern-c6f502295add42b1863bc917a864153c",
      "title": "Lantern pole with a paper lantern"
    },
    "generator": "Sketchfab-15.61.0",
    "version": "2.0"
  },
  "bufferViews": [
    {
      "buffer": 0,
      "byteLength": 13320,
      "name": "floatBufferViews",
      "target": 34963
    },
    {
      "buffer": 0,
      "byteLength": 17264,
      "byteOffset": 13320,
      "byteStride": 8,
      "name": "floatBufferViews",
      "target": 34962
    },
    {
      "buffer": 0,
      "byteLength": 51792,
      "byteOffset": 30584,
      "byteStride": 12,
      "name": "floatBufferViews",
      "target": 34962
    }
  ],
  "buffers": [
    {
      "byteLength": 82376,
      "uri": "scene.bin"
    }
  ],
  "images": [
    {
      "uri": "textures/lantern_paper_baseColor.png"
    },
    {
      "uri": "textures/lantern_pole_baseColor.png"
    }
  ],
  "materials": [
    {
      "doubleSided": true,
      "name": "lantern_paper",
      "pbrMetallicRoughness": {
        "baseColorTexture": {
          "index": 0
        },
        "metallicFactor": 0.0,
        "roughnessFactor": 0.8211145618000169
      }
    },
    {
      "doubleSided": true,
      "name": "lantern_pole",
      "pbrMetallicRoughness": {
        "baseColorTexture": {
          "index": 1
        },
        "metallicFactor": 0.0,
        "roughnessFactor": 0.8211145618000169
      }
    }
  ],
  "meshes": [
    {
      "name": "lantern paper_lantern paper_0",
      "primitives": [
        {
          "attributes": {
            "NORMAL": 1,
            "POSITION": 0,
            "TEXCOORD_0": 2
          },
          "indices": 3,
          "material": 0,
          "mode": 4
        }
      ]
    },
    {
      "name": "lantern pole_lantern pole_0",
      "primitives": [
        {
          "attributes": {
            "NORMAL": 5,
            "POSITION": 4,
            "TEXCOORD_0": 6
          },
          "indices": 7,
          "material": 1,
          "mode": 4
        }
      ]
    }
  ],
  "nodes": [
    {
      "children": [
        1
      ],
      "matrix": [
        1.0,
        0.0,
        0.0,
        0.0,
        0.0,
        2.220446049250313e-16,
        -1.0,
        0.0,
        0.0,
        1.0,
        2.220446049250313e-16,
        0.0,
        0.0,
        0.0,
        0.0,
        1.0
      ],
      "name": "Sketchfab_model"
    },
    {
      "children": [
        2
      ],
      "matrix": [
        0.009999999776482582,
        0.0,
        0.0,
        0.0,
        0.0,
        0.0,
        0.009999999776482582,
        0.0,
        0.0,
        -0.009999999776482582,
        0.0,
        0.0,
        0.0,
        0.0,
        0.0,
        1.0
      ],
      "name": "b96975b956b4446e83565e6fc15b6745.fbx"
    },
    {
      "children": [
        3,
        5
      ],
      "name": "RootNode"
    },
    {
      "children": [
        4
      ],
      "matrix": [
        1.0,
        0.0,
        0.0,
        0.0,
        0.0,
        1.0,
        0.0,
        0.0,
        0.0,
        0.0,
        1.0,
        0.0,
        0.0,
        23.525638580322266,
        0.0,
        1.0
      ],
      "name": "lantern paper"
    },
    {
      "mesh": 0,
      "name": "lantern paper_lantern paper_0"
    },
    {
      "children": [
        6
      ],
      "name": "lantern pole"
    },
    {
      "mesh": 1,
      "name": "lantern pole_lantern pole_0"
    }
  ],
  "samplers": [
    {
      "magFilter": 9729,
      "minFilter": 9987,
      "wrapS": 10497,
      "wrapT": 10497
    }
  ],
  "scene": 0,
  "scenes": [
    {
      "name": "Sketchfab_Scene",
      "nodes": [
        0
      ]
    }
  ],
  "textures": [
    {
      "sampler": 0,
      "source": 0
    },
    {
      "sampler": 0,
      "source": 1
    }
  ]
}
