{
  "accessors": [
    {
      "bufferView": 2,
      "componentType": 5126,
      "count": 4675,
      "max": [
        1.46180260181427,
        12.137911796569824,
        127.12960052490234
      ],
      "min": [
        -1.4618027210235596,
        -4.297747611999512,
        -127.12960052490234
      ],
      "type": "VEC3"
    },
    {
      "bufferView": 2,
      "byteOffset": 56100,
      "componentType": 5126,
      "count": 4675,
      "max": [
        1.0,
        1.0,
        1.0
      ],
      "min": [
        -1.0,
        -1.0,
        -1.0
      ],
      "type": "VEC3"
    },
    {
      "bufferView": 3,
      "componentType": 5126,
      "count": 4675,
      "max": [
        1.0,
        0.9999990463256836,
        1.0,
        1.0
      ],
      "min": [
        -1.0,
        -1.0,
        -1.0,
        -1.0
      ],
      "type": "VEC4"
    },
    {
      "bufferView": 1,
      "componentType": 5126,
      "count": 4675,
      "max": [
        0.9432793259620667,
        0.9995549917221069
      ],
      "min": [
        0.00044494037865661085,
        0.00044494037865661085
      ],
      "type": "VEC2"
    },
    {
      "bufferView": 0,
      "componentType": 5125,
      "count": 13920,
      "type": "SCALAR"
    }
  ],
  "asset": {
    "extras": {
      "author": "THunter (https://sketchfab.com/TwilightHunter)",
      "license": "CC-BY-4.0 (http://creativecommons.org/licenses/by/4.0/)",
      "source": "https://sketchfab.com/3d-models/twin-blades-of-the-moon-0587d863beb5407e9161588df0f1f095",
      "title": "Twin Blades of the Moon"
    },
    "generator": "Sketchfab-12.62.1",
    "version": "2.0"
  },
  "bufferViews": [
    {
      "buffer": 0,
      "byteLength": 55680,
      "name": "floatBufferViews",
      "target": 34963
    },
    {
      "buffer": 0,
      "byteLength": 37400,
      "byteOffset": 55680,
      "byteStride": 8,
      "name": "floatBufferViews",
      "target": 34962
    },
    {
      "buffer": 0,
      "byteLength": 112200,
      "byteOffset": 93080,
      "byteStride": 12,
      "name": "floatBufferViews",
      "target": 34962
    },
    {
      "buffer": 0,
      "byteLength": 74800,
      "byteOffset": 205280,
      "byteStride": 16,
      "name": "floatBufferViews",
      "target": 34962
    }
  ],
  "buffers": [
    {
      "byteLength": 280080,
      "uri": "scene.bin"
    }
  ],
  "images": [
    {
      "uri": "textures/Material_baseColor.png"
    },
    {
      "uri": "textures/Material_metallicRoughness.png"
    },
    {
      "uri": "textures/Material_normal.png"
    }
  ],
  "materials": [
    {
      "doubleSided": true,
      "name": "Material",
      "normalTexture": {
        "index": 2
      },
      "occlusionTexture": {
        "index": 1
      },
      "pbrMetallicRoughness": {
        "baseColorTexture": {
          "index": 0
        },
        "metallicFactor": 0.9076558500386092,
        "metallicRoughnessTexture": {
          "index": 1
        }
      }
    }
  ],
  "meshes": [
    {
      "name": "Cylinder.006_Material_0",
      "primitives": [
        {
          "attributes": {
            "NORMAL": 1,
            "POSITION": 0,
            "TANGENT": 2,
            "TEXCOORD_0": 3
          },
          "indices": 4,
          "material": 0,
          "mode": 4
        }
      ]
    }
  ],
  "nodes": [
    {
      "children": [
        1
      ],
      "matrix": [
        0.9840932488441467,
        -0.1776527464389801,
        -3.94468338968901e-17,
        0.0,
        -0.14793777465820313,
        -0.8194895386695861,
        -0.5536707639694216,
        0.0,
        0.09836114197969437,
        0.5448637008666994,
        -0.8327356576919555,
        0.0,
        0.008009407669305801,
        0.08944667875766754,
        0.005808456800878068,
        1.0
      ],
      "name": "Sketchfab_model"
    },
    {
      "children": [
        2
      ],
      "matrix": [
        0.009999999776482582,
        0.0,
        0.0,
        0.0,
        0.0,
        0.0,
        0.009999999776482582,
        0.0,
        0.0,
        -0.009999999776482582,
        0.0,
        0.0,
        0.0,
        0.0,
        0.0,
        1.0
      ],
      "name": "29efd9a61bb2468bbca5114dd9f936b6.fbx"
    },
    {
      "children": [
        3
      ],
      "name": "RootNode"
    },
    {
      "children": [
        4
      ],
      "matrix": [
        0.9950307011604309,
        0.0,
        0.0,
        0.0,
        0.0,
        -2.249986312376889e-07,
        -1.3810317516326722,
        0.0,
        0.0,
        1.006709814071642,
        -1.6401384685897836e-07,
        0.0,
        0.0,
        0.0,
        0.0,
        1.0
      ],
      "name": "Cylinder.006"
    },
    {
      "mesh": 0,
      "name": "Cylinder.006_Material_0"
    }
  ],
  "samplers": [
    {
      "magFilter": 9729,
      "minFilter": 9987,
      "wrapS": 10497,
      "wrapT": 10497
    }
  ],
  "scene": 0,
  "scenes": [
    {
      "name": "Sketchfab_Scene",
      "nodes": [
        0
      ]
    }
  ],
  "textures": [
    {
      "sampler": 0,
      "source": 0
    },
    {
      "sampler": 0,
      "source": 1
    },
    {
      "sampler": 0,
      "source": 2
    }
  ]
}
